<svg xmlns="http://www.w3.org/2000/svg" width="24" height="24" viewBox="0 0 24 24">
  <g id="Call" transform="translate(-127 -256)">
    <rect id="Frame" width="24" height="24" transform="translate(127 256)" fill="rgba(180,248,196,0)"/>
    <path id="call-2" data-name="call" d="M4,4A16.58,16.58,0,0,0,20.56,20.56a1,1,0,0,0,1-1V16.19a1.025,1.025,0,0,0-1-1,11.64,11.64,0,0,1-4.18-.73,1,1,0,0,0-1.16.18,25,25,0,0,0-1.75,2.07c-.32-.18-.63-.36-.93-.56l-.2-.14c-.29-.2-.57-.41-.85-.63l-.27-.22c-.33-.28-.65-.56-1-.87a7.536,7.536,0,0,1-.86-.95l-.23-.28a10.1,10.1,0,0,1-.62-.84,2.43,2.43,0,0,1-.14-.2c-.2-.3-.38-.61-.56-.93a25.34,25.34,0,0,0,2.1-1.76,1,1,0,0,0,.19-1.15A11.94,11.94,0,0,1,9.36,4a1,1,0,0,0-1-1H5A1,1,0,0,0,4,4ZM16.19,16.54a13.78,13.78,0,0,0,3.37.61v1.36h-.68a5.084,5.084,0,0,1-.94-.14l-.37-.06c-.42-.09-.83-.19-1.24-.31a.32.32,0,0,0-.09,0c-.31-.1-.61-.22-.91-.33A8.584,8.584,0,0,1,16.19,16.54ZM7.4,5A14,14,0,0,0,8,8.37c-.34.29-.71.6-1,.86-.12-.3-.23-.6-.32-.9v-.1A6.4,6.4,0,0,1,6.31,7a.735.735,0,0,0-.07-.38,7.91,7.91,0,0,0-.14-.94v-.4a2.44,2.44,0,0,1,0-.27Z" transform="translate(126 256)"/>
  </g>
</svg>
