<svg xmlns="http://www.w3.org/2000/svg" width="24" height="24" viewBox="0 0 24 24">
  <g id="contacts" transform="translate(0 -1)">
    <rect id="Frame" width="24" height="24" transform="translate(0 1)" fill="rgba(180,248,196,0)"/>
    <path id="Union_18" data-name="Union 18" d="M3-1604v-4.4c0-2.4,5-3.6,7.5-3.6s7.5,1.2,7.5,3.6v4.4Zm2-4.33v2.33H16v-2.33c-.41-.67-3.14-1.67-5.5-1.67S5.41-1609,5-1608.327ZM20-1606v-1.79h3.13v-2c-.33-.5-2.38-1.26-4.38-1.42a7.9,7.9,0,0,0-2.569-1.63A11.533,11.533,0,0,1,18-1613c2.33,0,7,1.05,7,3.151V-1606Zm-9.5-7A4.5,4.5,0,0,1,6-1617.5,4.5,4.5,0,0,1,10.51-1622a4.5,4.5,0,0,1,4.49,4.5,4.5,4.5,0,0,1-4.5,4.5Zm-1.761-6.271A2.5,2.5,0,0,0,8-1617.5a2.5,2.5,0,0,0,2.5,2.5,2.5,2.5,0,0,0,2.5-2.493A2.5,2.5,0,0,0,10.51-1620H10.5A2.5,2.5,0,0,0,8.735-1619.268Zm7.484,4.842a6.484,6.484,0,0,0,.62-1.68,2.22,2.22,0,0,0,2.917-.526,2.221,2.221,0,0,0-.205-2.957,2.221,2.221,0,0,0-2.962-.117,6.265,6.265,0,0,0-.84-1.6A3.944,3.944,0,0,1,18-1622a4,4,0,0,1,4,4,4,4,0,0,1-4,4A3.935,3.935,0,0,1,16.22-1614.426Z" transform="translate(-2 1625.997)"/>
  </g>
</svg>
