<svg xmlns="http://www.w3.org/2000/svg" width="24" height="24" viewBox="0 0 24 24">
  <g id="call-group" transform="translate(0)">
    <rect id="Frame" width="24" height="24" transform="translate(0)" fill="rgba(180,248,196,0)"/>
    <path id="group-call" d="M-1350.9-236.284v-1.6a3.821,3.821,0,0,0-1.8-3.2c2.3.3,5.5,1.3,5.6,3.2v1.6Zm-15.1,0v-1.6c0-2.2,4.4-3.3,6.6-3.3s6.6,1.1,6.5,3.3v1.6Zm2.3-1.8h8.8a8.545,8.545,0,0,0-4.4-1.2,9.642,9.642,0,0,0-4.4,1.2Zm16.439-4.463a.509.509,0,0,1-.356-.155l-1.224-1.224a.5.5,0,0,1-.154-.356.511.511,0,0,1,.142-.361,5.764,5.764,0,0,0,1.2-1.741.484.484,0,0,1,.474-.334,12.683,12.683,0,0,1,1.381.146c.053-.176.089-.355.124-.531a1.086,1.086,0,0,0,.02-.122,4.89,4.89,0,0,0,.069-.521l.014-.182a3.794,3.794,0,0,0,.023-.648c-.02-.238-.036-.452-.059-.671l-.022-.176c-.022-.181-.053-.355-.088-.531l-.021-.121c-.04-.18-.089-.355-.142-.536a12.35,12.35,0,0,1-1.364.092.528.528,0,0,1-.488-.36A6.174,6.174,0,0,0-1349-252.66a.527.527,0,0,1-.15-.361.494.494,0,0,1,.137-.355l1.186-1.186a.5.5,0,0,1,.361-.143.5.5,0,0,1,.355.154,8.4,8.4,0,0,1,.206,11.859.507.507,0,0,1-.354.143Zm-7.839-.536a5.286,5.286,0,0,0,.9-3,5.066,5.066,0,0,0-.9-3,3.2,3.2,0,0,1,1.4-.3,3.329,3.329,0,0,1,3.3,3.3,3.328,3.328,0,0,1-3.3,3.3,3.2,3.2,0,0,1-1.4-.3Zm-7.5-3a3.182,3.182,0,0,1,.9-2.333,3.182,3.182,0,0,1,2.3-.967,3.265,3.265,0,0,1,2.344.956,3.265,3.265,0,0,1,.956,2.344,3.329,3.329,0,0,1-3.3,3.3,3.243,3.243,0,0,1-2.286-.985,3.243,3.243,0,0,1-.914-2.315Zm1.8,0a1.368,1.368,0,0,0,.4,1,1.367,1.367,0,0,0,1,.4,1.367,1.367,0,0,0,1-.4,1.367,1.367,0,0,0,.4-1,1.368,1.368,0,0,0-.4-1,1.368,1.368,0,0,0-1-.4,1.43,1.43,0,0,0-1.4,1.4Z" transform="translate(1367.277 256.836)"/>
  </g>
</svg>
