<svg id="emoji_objects_black_24dp" xmlns="http://www.w3.org/2000/svg" width="24" height="24" viewBox="0 0 24 24">
  <rect id="Frame" width="24" height="24" fill="rgba(180,248,196,0)"/>
  <path id="Union_15" data-name="Union 15" d="M214.283-631H214a2.006,2.006,0,0,1-2-2v-2.309a1.944,1.944,0,0,0-.66-1.471,7,7,0,0,1-2.22-6.56,6.974,6.974,0,0,1,5.48-5.52A6.72,6.72,0,0,1,216-649a6.994,6.994,0,0,1,7,7,6.956,6.956,0,0,1-2.36,5.23,1.938,1.938,0,0,0-.64,1.461V-633a2.006,2.006,0,0,1-2,2h-.28a1.968,1.968,0,0,1-1.72,1A1.981,1.981,0,0,1,214.283-631Zm-.28-2h4v-1h-4Zm0-2h4v-1h-4Zm.98-11.9a5.02,5.02,0,0,0-3.89,3.929,5.043,5.043,0,0,0,1.59,4.7,3.122,3.122,0,0,1,.239.27h6.151c.08-.08.149-.18.239-.26A4.974,4.974,0,0,0,221-642a5,5,0,0,0-5-5A5.031,5.031,0,0,0,214.983-646.9Zm.52,8.9v-2.592l-1.828-1.828.707-.706,1.626,1.626,1.616-1.616.707.707-1.83,1.83V-638Z" transform="translate(-204.003 651.997)"/>
</svg>
